<svg xmlns="http://www.w3.org/2000/svg" width="1400" height="720" viewBox="0 0 1400 720" role="img" aria-labelledby="title desc">
  <title id="title">Dyson V12 Detect Slim vs Digital Slim：灰塵偵測科技與輕量預算款怎麼選：使用場景地圖</title>
  <desc id="desc">自製功能說明 SVG，依官方規格、公開評測與討論重點整理，非產品實拍。</desc>
  <defs>
    <linearGradient id="bg" x1="0" x2="1" y1="0" y2="1">
      <stop offset="0%" stop-color="#f7fbff"/>
      <stop offset="100%" stop-color="#eef7f4"/>
    </linearGradient>
    <filter id="shadow" x="-10%" y="-10%" width="120%" height="120%">
      <feDropShadow dx="0" dy="8" stdDeviation="10" flood-color="#17324d" flood-opacity="0.16"/>
    </filter>
  </defs>
  <style>
    .title { font: 700 38px "Noto Sans TC", "Microsoft JhengHei", Arial, sans-serif; fill: #17324d; }
    .label { font: 700 28px "Noto Sans TC", "Microsoft JhengHei", Arial, sans-serif; fill: #17324d; }
    .body { font: 500 24px "Noto Sans TC", "Microsoft JhengHei", Arial, sans-serif; fill: #25445f; }
    .small { font: 500 20px "Noto Sans TC", "Microsoft JhengHei", Arial, sans-serif; fill: #48667d; }
    .pill { font: 700 20px "Noto Sans TC", "Microsoft JhengHei", Arial, sans-serif; fill: #ffffff; }
  </style>
  <rect width="1400" height="720" rx="0" fill="url(#bg)"/>
  <text x="64" y="70" class="title">Dyson V12 Detect Slim vs Digital Slim：灰塵偵測科技與輕量預算款怎麼選：使用場景地圖</text>
  <text x="66" y="112" class="small">自製功能說明 SVG，依官方規格、公開評測與討論重點整理，非產品實拍。</text>

  <rect x="68" y="155" width="492" height="430" rx="20" fill="#ffffff" filter="url(#shadow)"/>
  <rect x="840" y="155" width="492" height="430" rx="20" fill="#ffffff" filter="url(#shadow)"/>
  <rect x="96" y="185" width="160" height="42" rx="21" fill="#5368a6"/>
  <rect x="868" y="185" width="160" height="42" rx="21" fill="#b16d45"/>
  <text x="116" y="214" class="pill">方案 A</text>
  <text x="888" y="214" class="pill">方案 B</text>
  <text x="96" y="270" class="label">Dyson V12 Detect Slim</text>
  <text x="868" y="270" class="label">Dyson Digital Slim</text>
  <circle cx="485" cy="248" r="44" fill="#5368a6" opacity="0.16"/>
  <circle cx="1258" cy="248" r="44" fill="#b16d45" opacity="0.16"/>
  <path d="M470 248 h30 m-15 -15 v30" stroke="#5368a6" stroke-width="7" stroke-linecap="round"/>
  <path d="M1243 248 h30 m-15 -15 v30" stroke="#b16d45" stroke-width="7" stroke-linecap="round"/>
  <text x="96" y="332" class="body" font-size="26">適合：想要灰塵偵測、LCD 顆粒顯示、自動吸力與</text>
<text x="96" y="374" class="body" font-size="26">價格：約 NT$18,000 / 銷量 約 4,000+ 件</text>
<text x="96" y="416" class="body" font-size="26">RTINGS 說明 V12 Detect Slim 具備</text>
<text x="96" y="458" class="body" font-size="26">若家中厚地毯多、需要深層地毯吸力，V12 的輕量優勢不一</text>
  <text x="868" y="332" class="body" font-size="26">適合：想要比 V8 新、比 V12 便宜，且重視</text>
<text x="868" y="374" class="body" font-size="26">價格：約 NT$13,000 / 銷量 約 3,000+ 件</text>
<text x="868" y="416" class="body" font-size="26">賣場名稱標示 Digital Slim Origin S</text>
<text x="868" y="458" class="body" font-size="26">它沒有 V12 的灰塵照明與顆粒偵測，也不是濕拖機；若你</text>

  <path d="M560 360 C650 330 750 330 840 360" fill="none" stroke="#91a8ba" stroke-width="6" stroke-linecap="round"/>
  <path d="M824 343 L842 360 L824 377" fill="none" stroke="#91a8ba" stroke-width="6" stroke-linecap="round"/>
  <rect x="112" y="610" width="1176" height="56" rx="28" fill="#17324d"/>
  <text x="150" y="647" class="pill">判斷順序：先看空間與需求，再看功能，最後才看價格與促銷。</text>
</svg>
