<svg xmlns="http://www.w3.org/2000/svg" width="1400" height="720" viewBox="0 0 1400 720" role="img" aria-labelledby="title desc">
  <title id="title">1Zpresso K-Ultra vs ZP6 特仕版：全能手搖磨豆機與手沖清晰派怎麼選：功能取捨流程</title>
  <desc id="desc">比較圖，依公開商品頁、官方資料與選購查核重點整理。</desc>
  <defs>
    <linearGradient id="bg" x1="0" x2="1" y1="0" y2="1">
      <stop offset="0%" stop-color="#f8fbff"/>
      <stop offset="100%" stop-color="#eef7f4"/>
    </linearGradient>
    <filter id="shadow" x="-10%" y="-10%" width="120%" height="120%">
      <feDropShadow dx="0" dy="8" stdDeviation="10" flood-color="#17324d" flood-opacity="0.16"/>
    </filter>
  </defs>
  <style>
    .title { font: 700 34px "Noto Sans TC", "Microsoft JhengHei", Arial, sans-serif; fill: #17324d; }
    .small { font: 500 20px "Noto Sans TC", "Microsoft JhengHei", Arial, sans-serif; fill: #48667d; }
    .label { font: 700 28px "Noto Sans TC", "Microsoft JhengHei", Arial, sans-serif; fill: #17324d; }
    .body { font: 500 22px "Noto Sans TC", "Microsoft JhengHei", Arial, sans-serif; fill: #25445f; }
    .pill { font: 700 20px "Noto Sans TC", "Microsoft JhengHei", Arial, sans-serif; fill: #ffffff; }
  </style>
  <rect width="1400" height="720" fill="url(#bg)"/>
  <text x="64" y="70" class="title">1Zpresso K-Ultra vs ZP6 特仕版：全能手搖磨豆機與手沖</text>
  <text x="66" y="112" class="small">手搖磨豆機｜功能取捨流程｜2026-05-22</text>
  <rect x="68" y="155" width="492" height="430" rx="20" fill="#ffffff" filter="url(#shadow)"/>
  <rect x="840" y="155" width="492" height="430" rx="20" fill="#ffffff" filter="url(#shadow)"/>
  <rect x="96" y="185" width="160" height="42" rx="21" fill="#2f7da1"/>
  <rect x="868" y="185" width="160" height="42" rx="21" fill="#4f8b5f"/>
  <text x="116" y="214" class="pill">方案 A</text>
  <text x="888" y="214" class="pill">方案 B</text>
  <text x="96" y="270" class="label">1Zpresso K-Ultra</text>
  <text x="868" y="270" class="label">1Zpresso ZP6 特仕版</text>
  <text x="96" y="326" class="body">適合：</text>
  <text x="96" y="362" class="body">你想一台解決多數沖煮法，</text>
  <text x="96" y="398" class="body">或還不確定自己會不會長期只喝手沖。</text>
  <text x="96" y="434" class="body">它比較像主力工具，</text>
  <text x="96" y="470" class="body">下單前檢查：</text>
  <text x="96" y="506" class="body">少買一台的全能感，適合還在探索沖煮法的人</text>
  <text x="868" y="326" class="body">適合：</text>
  <text x="868" y="362" class="body">你已經知道自己大多喝手沖，重視清晰、乾淨、</text>
  <text x="868" y="398" class="body">分離感，且願意用不同研磨度微調豆子的表現。</text>
  <text x="868" y="434" class="body">它不是萬用解，而是替手沖玩家做得更專注。</text>
  <text x="868" y="470" class="body">下單前檢查：</text>
  <text x="868" y="506" class="body">不追求萬用，追求手沖杯感更精準</text>
  <text x="70" y="650" class="small">資料來源：Shopee 商品頁、官方/公開查核資料。實際價格與庫存以下單頁為準。</text>
</svg>
