<svg xmlns="http://www.w3.org/2000/svg" width="1400" height="720" viewBox="0 0 1400 720" role="img" aria-labelledby="title desc">
  <title id="title">1Zpresso K-Ultra vs ZP6 特仕版：全能手搖磨豆機與手沖清晰派怎麼選：使用場景地圖</title>
  <desc id="desc">比較圖，依公開商品頁、官方資料與選購查核重點整理。</desc>
  <defs>
    <linearGradient id="bg" x1="0" x2="1" y1="0" y2="1">
      <stop offset="0%" stop-color="#f8fbff"/>
      <stop offset="100%" stop-color="#eef7f4"/>
    </linearGradient>
    <filter id="shadow" x="-10%" y="-10%" width="120%" height="120%">
      <feDropShadow dx="0" dy="8" stdDeviation="10" flood-color="#17324d" flood-opacity="0.16"/>
    </filter>
  </defs>
  <style>
    .title { font: 700 34px "Noto Sans TC", "Microsoft JhengHei", Arial, sans-serif; fill: #17324d; }
    .small { font: 500 20px "Noto Sans TC", "Microsoft JhengHei", Arial, sans-serif; fill: #48667d; }
    .label { font: 700 28px "Noto Sans TC", "Microsoft JhengHei", Arial, sans-serif; fill: #17324d; }
    .body { font: 500 22px "Noto Sans TC", "Microsoft JhengHei", Arial, sans-serif; fill: #25445f; }
    .pill { font: 700 20px "Noto Sans TC", "Microsoft JhengHei", Arial, sans-serif; fill: #ffffff; }
  </style>
  <rect width="1400" height="720" fill="url(#bg)"/>
  <text x="64" y="70" class="title">1Zpresso K-Ultra vs ZP6 特仕版：全能手搖磨豆機與手沖</text>
  <text x="66" y="112" class="small">手搖磨豆機｜使用場景地圖｜2026-05-22</text>
  <rect x="68" y="155" width="492" height="430" rx="20" fill="#ffffff" filter="url(#shadow)"/>
  <rect x="840" y="155" width="492" height="430" rx="20" fill="#ffffff" filter="url(#shadow)"/>
  <rect x="96" y="185" width="160" height="42" rx="21" fill="#2f7da1"/>
  <rect x="868" y="185" width="160" height="42" rx="21" fill="#4f8b5f"/>
  <text x="116" y="214" class="pill">方案 A</text>
  <text x="888" y="214" class="pill">方案 B</text>
  <text x="96" y="270" class="label">1Zpresso K-Ultra</text>
  <text x="868" y="270" class="label">1Zpresso ZP6 特仕版</text>
  <text x="96" y="326" class="body">1ZpressoK-Ultra</text>
  <text x="96" y="362" class="body">約NT$5,280｜銷量9,000+</text>
  <text x="96" y="398" class="body">一台磨豆機想涵蓋手沖、摩卡壺、</text>
  <text x="96" y="434" class="body">愛樂壓與偶爾濃縮探索</text>
  <text x="96" y="470" class="body">需要理解刻度對不同沖煮法的影響，</text>
  <text x="96" y="506" class="body">但容錯範圍較寬</text>
  <text x="868" y="326" class="body">1ZpressoZP6特仕版</text>
  <text x="868" y="362" class="body">約NT$4,280｜銷量7,000+</text>
  <text x="868" y="398" class="body">主要喝手沖，願意把甜感、</text>
  <text x="868" y="434" class="body">酸質與清晰度放在第一順位</text>
  <text x="868" y="470" class="body">需要更清楚自己的豆子、研磨度與萃取偏好</text>
  <text x="70" y="650" class="small">資料來源：Shopee 商品頁、官方/公開查核資料。實際價格與庫存以下單頁為準。</text>
</svg>
