<svg xmlns="http://www.w3.org/2000/svg" width="1400" height="720" viewBox="0 0 1400 720" role="img" aria-labelledby="title desc">
  <title id="title">SAMPO RE-B020PM vs Whirlpool AKM2064ES：20L 微波爐要選微電腦還是高銷量入門款：功能取捨流程</title>
  <desc id="desc">自製比較 SVG，依 CSV 商品資料、公開規格與選購查核重點整理，非產品實拍。</desc>
  <defs>
    <linearGradient id="bg" x1="0" x2="1" y1="0" y2="1">
      <stop offset="0%" stop-color="#f8fbff"/>
      <stop offset="100%" stop-color="#eef7f4"/>
    </linearGradient>
    <filter id="shadow" x="-10%" y="-10%" width="120%" height="120%">
      <feDropShadow dx="0" dy="8" stdDeviation="10" flood-color="#17324d" flood-opacity="0.16"/>
    </filter>
  </defs>
  <style>
    .title { font: 700 34px "Noto Sans TC", "Microsoft JhengHei", Arial, sans-serif; fill: #17324d; }
    .small { font: 500 20px "Noto Sans TC", "Microsoft JhengHei", Arial, sans-serif; fill: #48667d; }
    .label { font: 700 28px "Noto Sans TC", "Microsoft JhengHei", Arial, sans-serif; fill: #17324d; }
    .body { font: 500 22px "Noto Sans TC", "Microsoft JhengHei", Arial, sans-serif; fill: #25445f; }
    .pill { font: 700 20px "Noto Sans TC", "Microsoft JhengHei", Arial, sans-serif; fill: #ffffff; }
  </style>
  <rect width="1400" height="720" fill="url(#bg)"/>
  <text x="64" y="70" class="title">SAMPO RE-B020PM vs Whirlpool AKM2064ES</text>
  <text x="66" y="112" class="small">20L 微波爐｜功能取捨流程｜2026-05-22</text>
  <rect x="68" y="155" width="492" height="430" rx="20" fill="#ffffff" filter="url(#shadow)"/>
  <rect x="840" y="155" width="492" height="430" rx="20" fill="#ffffff" filter="url(#shadow)"/>
  <rect x="96" y="185" width="160" height="42" rx="21" fill="#2f7da1"/>
  <rect x="868" y="185" width="160" height="42" rx="21" fill="#4f8b5f"/>
  <text x="116" y="214" class="pill">方案 A</text>
  <text x="888" y="214" class="pill">方案 B</text>
  <text x="96" y="270" class="label">SAMPO RE-B020PM</text>
  <text x="868" y="270" class="label">Whirlpool AKM2064ES</text>
  <text x="96" y="326" class="body">適合：</text>
  <text x="96" y="362" class="body">你想要較完整的官方型號資料、平台式清潔體驗，</text>
  <text x="96" y="398" class="body">且每天或多人共用微波爐。</text>
  <text x="96" y="434" class="body">它比較適合長期使用與重視清潔的人。</text>
  <text x="96" y="470" class="body">下單前檢查：</text>
  <text x="96" y="506" class="body">尺寸、功率、是否平台式、保固與清潔方式</text>
  <text x="868" y="326" class="body">適合：</text>
  <text x="868" y="362" class="body">你預算有限，只需要穩定加熱便當與簡單食物。</text>
  <text x="868" y="398" class="body">它的價格與銷量優勢明顯，</text>
  <text x="868" y="434" class="body">適合租屋與辦公室入門需求。</text>
  <text x="868" y="470" class="body">下單前檢查：</text>
  <text x="868" y="506" class="body">操作介面、尺寸、保固、內部材質與退換貨</text>
  <rect x="570" y="275" width="260" height="150" rx="28" fill="#17324d" opacity="0.92"/>
  <text x="604" y="335" class="pill">用需求排序，避免只看折扣</text>
  <text x="604" y="380" class="pill">價格只是入口</text>
  <text x="604" y="425" class="pill">使用情境才是答案</text>
  <path d="M560 360 C625 360 650 360 700 360" stroke="#9fbdd0" stroke-width="8" stroke-linecap="round"/>
  <path d="M840 360 C775 360 750 360 700 360" stroke="#a5c7a9" stroke-width="8" stroke-linecap="round"/>
  <text x="70" y="650" class="small">資料來源：CSV 商品列表、Shopee 商品頁、官方/公開查核資料。實際價格與庫存以下單頁為準。</text>
</svg>
