<svg xmlns="http://www.w3.org/2000/svg" width="1400" height="720" viewBox="0 0 1400 720" role="img" aria-labelledby="title desc">
  <title id="title">Kolin 5L 透視氣炸鍋 vs Arlink 2L 小型氣炸鍋：容量、清潔與一人食怎麼選：功能取捨流程</title>
  <desc id="desc">比較圖，依公開商品頁、官方資料與選購查核重點整理。</desc>
  <defs>
    <linearGradient id="bg" x1="0" x2="1" y1="0" y2="1">
      <stop offset="0%" stop-color="#f8fbff"/>
      <stop offset="100%" stop-color="#eef7f4"/>
    </linearGradient>
    <filter id="shadow" x="-10%" y="-10%" width="120%" height="120%">
      <feDropShadow dx="0" dy="8" stdDeviation="10" flood-color="#17324d" flood-opacity="0.16"/>
    </filter>
  </defs>
  <style>
    .title { font: 700 34px "Noto Sans TC", "Microsoft JhengHei", Arial, sans-serif; fill: #17324d; }
    .small { font: 500 20px "Noto Sans TC", "Microsoft JhengHei", Arial, sans-serif; fill: #48667d; }
    .label { font: 700 28px "Noto Sans TC", "Microsoft JhengHei", Arial, sans-serif; fill: #17324d; }
    .body { font: 500 22px "Noto Sans TC", "Microsoft JhengHei", Arial, sans-serif; fill: #25445f; }
    .pill { font: 700 20px "Noto Sans TC", "Microsoft JhengHei", Arial, sans-serif; fill: #ffffff; }
  </style>
  <rect width="1400" height="720" fill="url(#bg)"/>
  <text x="64" y="70" class="title">Kolin 5L 透視氣炸鍋 vs Arlink 2L 小型氣炸鍋：容量、清</text>
  <text x="66" y="112" class="small">氣炸鍋｜功能取捨流程｜2026-05-23</text>
  <rect x="68" y="155" width="492" height="430" rx="20" fill="#ffffff" filter="url(#shadow)"/>
  <rect x="840" y="155" width="492" height="430" rx="20" fill="#ffffff" filter="url(#shadow)"/>
  <rect x="96" y="185" width="160" height="42" rx="21" fill="#2f7da1"/>
  <rect x="868" y="185" width="160" height="42" rx="21" fill="#4f8b5f"/>
  <text x="116" y="214" class="pill">方案 A</text>
  <text x="888" y="214" class="pill">方案 B</text>
  <text x="96" y="270" class="label">Kolin 5L 透視氣炸鍋</text>
  <text x="868" y="270" class="label">Arlink AF205 2L</text>
  <text x="96" y="326" class="body">適合：</text>
  <text x="96" y="362" class="body">你常做兩到四人份、希望少分批，</text>
  <text x="96" y="398" class="body">且想用透視窗觀察烹調狀態。</text>
  <text x="96" y="434" class="body">下單前檢查：</text>
  <text x="96" y="470" class="body">水槽大小、炸籃塗層、透視窗清潔與功率</text>
  <text x="868" y="326" class="body">適合：</text>
  <text x="868" y="362" class="body">你是一人食、租屋、小廚房或只想回烤少量食物，</text>
  <text x="868" y="398" class="body">重視低價與好收納。</text>
  <text x="868" y="434" class="body">下單前檢查：</text>
  <text x="868" y="470" class="body">容量是否太小、炸籃尺寸與溫控方式</text>
  <text x="70" y="650" class="small">資料來源：Shopee 商品頁、官方/公開查核資料。實際價格與庫存以下單頁為準。</text>
</svg>
