<svg xmlns="http://www.w3.org/2000/svg" width="900" height="1350" viewBox="0 0 900 1350" role="img" aria-labelledby="title desc">
  <title id="title">家電與生活商品比較指南縮圖</title>
  <desc id="desc">以兩欄方案比較、家電輪廓與選購勾選符號構成的原創分類縮圖。</desc>
  <defs>
    <linearGradient id="bg" x1="0" y1="0" x2="1" y2="1"><stop offset="0" stop-color="#f7fbff"/><stop offset="1" stop-color="#eef2ff"/></linearGradient>
    <filter id="shadow" x="-20%" y="-20%" width="140%" height="140%"><feDropShadow dx="0" dy="24" stdDeviation="28" flood-color="#17324d" flood-opacity="0.16"/></filter>
  </defs>
  <rect width="900" height="1350" fill="url(#bg)"/>
  <circle cx="760" cy="220" r="170" fill="#d9e6ff" opacity="0.8"/>
  <circle cx="130" cy="1110" r="220" fill="#d9f0e3" opacity="0.75"/>
  <rect x="110" y="185" width="680" height="840" rx="48" fill="#ffffff" filter="url(#shadow)"/>
  <rect x="170" y="260" width="250" height="570" rx="32" fill="#f4f8fb" stroke="#cddce8" stroke-width="8"/>
  <rect x="480" y="260" width="250" height="570" rx="32" fill="#f6fbf5" stroke="#cfe3d4" stroke-width="8"/>
  <rect x="205" y="310" width="180" height="62" rx="31" fill="#2f7da1"/>
  <rect x="515" y="310" width="180" height="62" rx="31" fill="#4f8b5f"/>
  <text x="295" y="353" text-anchor="middle" font-family="Noto Sans TC, Microsoft JhengHei, Arial, sans-serif" font-size="32" font-weight="800" fill="#ffffff">方案 A</text>
  <text x="605" y="353" text-anchor="middle" font-family="Noto Sans TC, Microsoft JhengHei, Arial, sans-serif" font-size="32" font-weight="800" fill="#ffffff">方案 B</text>
  <rect x="230" y="455" width="130" height="230" rx="54" fill="#243746"/>
  <circle cx="295" cy="515" r="36" fill="#8ecae6" opacity="0.9"/>
  <rect x="535" y="450" width="140" height="250" rx="38" fill="#2e4a3f"/>
  <rect x="568" y="494" width="74" height="120" rx="26" fill="#dff4e7"/>
  <path d="M228 760 h132 m-132 48 h104" stroke="#9fb2c2" stroke-width="18" stroke-linecap="round"/>
  <path d="M538 760 h132 m-132 48 h104" stroke="#9fb99f" stroke-width="18" stroke-linecap="round"/>
  <path d="M372 910 l50 50 106 -132" fill="none" stroke="#17324d" stroke-width="24" stroke-linecap="round" stroke-linejoin="round"/>
  <text x="450" y="1130" text-anchor="middle" font-family="Noto Sans TC, Microsoft JhengHei, Arial, sans-serif" font-size="56" font-weight="800" fill="#17324d">家電與生活商品</text>
  <text x="450" y="1205" text-anchor="middle" font-family="Noto Sans TC, Microsoft JhengHei, Arial, sans-serif" font-size="56" font-weight="800" fill="#17324d">比較指南</text>
</svg>
