<svg xmlns="http://www.w3.org/2000/svg" width="900" height="1350" viewBox="0 0 900 1350" role="img" aria-labelledby="title desc">
  <title id="title">單件商品介紹</title>
  <desc id="desc">單件商品頁面的分類縮圖，呈現商品卡、購買連結與選購檢查。</desc>
  <defs>
    <linearGradient id="bg" x1="0" y1="0" x2="1" y2="1">
      <stop offset="0" stop-color="#fff7ed"/>
      <stop offset="1" stop-color="#eef2ff"/>
    </linearGradient>
    <linearGradient id="panel" x1="0" y1="0" x2="1" y2="1">
      <stop offset="0" stop-color="#ffffff"/>
      <stop offset="1" stop-color="#f8fafc"/>
    </linearGradient>
    <filter id="shadow" x="-20%" y="-20%" width="140%" height="140%">
      <feDropShadow dx="0" dy="24" stdDeviation="28" flood-color="#172554" flood-opacity="0.16"/>
    </filter>
  </defs>
  <rect width="900" height="1350" fill="url(#bg)"/>
  <circle cx="150" cy="230" r="180" fill="#fed7aa" opacity="0.72"/>
  <circle cx="760" cy="1110" r="230" fill="#c7d2fe" opacity="0.72"/>
  <rect x="118" y="180" width="664" height="850" rx="48" fill="url(#panel)" filter="url(#shadow)"/>
  <rect x="210" y="285" width="480" height="420" rx="42" fill="#f1f5f9" stroke="#d7dee8" stroke-width="8"/>
  <rect x="292" y="350" width="316" height="250" rx="36" fill="#ffffff" stroke="#cbd5e1" stroke-width="8"/>
  <path d="M365 600h170l-24 74H389z" fill="#1e293b"/>
  <path d="M334 674h232" stroke="#1e293b" stroke-width="18" stroke-linecap="round"/>
  <circle cx="382" cy="720" r="24" fill="#f97316"/>
  <circle cx="530" cy="720" r="24" fill="#f97316"/>
  <path d="M352 438h196m-196 58h160m-160 58h116" stroke="#94a3b8" stroke-width="22" stroke-linecap="round"/>
  <rect x="226" y="800" width="448" height="92" rx="46" fill="#ea580c"/>
  <text x="450" y="858" text-anchor="middle" font-family="Noto Sans TC, Microsoft JhengHei, Arial, sans-serif" font-size="38" font-weight="800" fill="#ffffff">商品頁面</text>
  <path d="M310 958l42 42 90-116" fill="none" stroke="#2563eb" stroke-width="22" stroke-linecap="round" stroke-linejoin="round"/>
  <path d="M500 916h112m-112 56h80" stroke="#64748b" stroke-width="20" stroke-linecap="round"/>
  <text x="450" y="1130" text-anchor="middle" font-family="Noto Sans TC, Microsoft JhengHei, Arial, sans-serif" font-size="58" font-weight="800" fill="#172554">單件商品介紹</text>
  <text x="450" y="1205" text-anchor="middle" font-family="Noto Sans TC, Microsoft JhengHei, Arial, sans-serif" font-size="36" font-weight="700" fill="#475569">profuct-introduce</text>
</svg>
